<?xml version="1.0" encoding="us-ascii" standalone="no"?><svg xmlns="http://www.w3.org/2000/svg" xmlns:xlink="http://www.w3.org/1999/xlink" contentStyleType="text/css" height="633px" preserveAspectRatio="none" style="width:844px;height:633px;background:#FFFFFF;" version="1.1" viewBox="0 0 844 633" width="844px" zoomAndPan="magnify"><defs/><g><text fill="#000000" font-family="sans-serif" font-size="14" font-weight="bold" lengthAdjust="spacing" textLength="262" x="292.25" y="29.5332">Add Reservation - Sequence Diagram</text><rect fill="#FFFFFF" height="272.1641" style="stroke:#181818;stroke-width:1.0;" width="10" x="340.5" y="230.625"/><rect fill="#FFFFFF" height="195.1094" style="stroke:#181818;stroke-width:1.0;" width="10" x="505.5" y="260.9766"/><rect fill="#FFFFFF" height="60.7031" style="stroke:#181818;stroke-width:1.0;" width="10" x="663" y="334.6797"/><line style="stroke:#181818;stroke-width:0.5;stroke-dasharray:5.0,5.0;" x1="22" x2="22" y1="121.2188" y2="551.1406"/><line style="stroke:#181818;stroke-width:0.5;stroke-dasharray:5.0,5.0;" x1="188" x2="188" y1="121.2188" y2="551.1406"/><line style="stroke:#181818;stroke-width:0.5;stroke-dasharray:5.0,5.0;" x1="345.5" x2="345.5" y1="121.2188" y2="551.1406"/><line style="stroke:#181818;stroke-width:0.5;stroke-dasharray:5.0,5.0;" x1="510" x2="510" y1="121.2188" y2="551.1406"/><line style="stroke:#181818;stroke-width:0.5;stroke-dasharray:5.0,5.0;" x1="668" x2="668" y1="121.2188" y2="551.1406"/><line style="stroke:#181818;stroke-width:0.5;stroke-dasharray:5.0,5.0;" x1="808.5" x2="808.5" y1="121.2188" y2="551.1406"/><text fill="#000000" font-family="sans-serif" font-size="14" lengthAdjust="spacing" textLength="29" x="5" y="118.1426">User</text><ellipse cx="22.5" cy="52.1094" fill="#E2E2F0" rx="8" ry="8" style="stroke:#181818;stroke-width:0.5;"/><path d="M22.5,60.1094 L22.5,87.1094 M9.5,68.1094 L35.5,68.1094 M22.5,87.1094 L9.5,102.1094 M22.5,87.1094 L35.5,102.1094 " fill="none" style="stroke:#181818;stroke-width:0.5;"/><text fill="#000000" font-family="sans-serif" font-size="14" lengthAdjust="spacing" textLength="29" x="5" y="564.6738">User</text><ellipse cx="22.5" cy="576.25" fill="#E2E2F0" rx="8" ry="8" style="stroke:#181818;stroke-width:0.5;"/><path d="M22.5,584.25 L22.5,611.25 M9.5,592.25 L35.5,592.25 M22.5,611.25 L9.5,626.25 M22.5,611.25 L35.5,626.25 " fill="none" style="stroke:#181818;stroke-width:0.5;"/><rect fill="#E2E2F0" height="49.2188" rx="2.5" ry="2.5" style="stroke:#181818;stroke-width:0.5;" width="75" x="151" y="71"/><text fill="#000000" font-family="sans-serif" font-size="14" lengthAdjust="spacing" textLength="58" x="159.5" y="92.5332">Frontend</text><text fill="#000000" font-family="sans-serif" font-size="14" lengthAdjust="spacing" textLength="61" x="158" y="110.1426">(Browser)</text><rect fill="#E2E2F0" height="49.2188" rx="2.5" ry="2.5" style="stroke:#181818;stroke-width:0.5;" width="75" x="151" y="550.1406"/><text fill="#000000" font-family="sans-serif" font-size="14" lengthAdjust="spacing" textLength="58" x="159.5" y="571.6738">Frontend</text><text fill="#000000" font-family="sans-serif" font-size="14" lengthAdjust="spacing" textLength="61" x="158" y="589.2832">(Browser)</text><rect fill="#E2E2F0" height="31.6094" rx="2.5" ry="2.5" style="stroke:#181818;stroke-width:0.5;" width="152" x="269.5" y="88.6094"/><text fill="#000000" font-family="sans-serif" font-size="14" lengthAdjust="spacing" textLength="138" x="276.5" y="110.1426">ReservationController</text><rect fill="#E2E2F0" height="31.6094" rx="2.5" ry="2.5" style="stroke:#181818;stroke-width:0.5;" width="152" x="269.5" y="550.1406"/><text fill="#000000" font-family="sans-serif" font-size="14" lengthAdjust="spacing" textLength="138" x="276.5" y="571.6738">ReservationController</text><rect fill="#E2E2F0" height="31.6094" rx="2.5" ry="2.5" style="stroke:#181818;stroke-width:0.5;" width="137" x="442" y="88.6094"/><text fill="#000000" font-family="sans-serif" font-size="14" lengthAdjust="spacing" textLength="123" x="449" y="110.1426">ReservationService</text><rect fill="#E2E2F0" height="31.6094" rx="2.5" ry="2.5" style="stroke:#181818;stroke-width:0.5;" width="137" x="442" y="550.1406"/><text fill="#000000" font-family="sans-serif" font-size="14" lengthAdjust="spacing" textLength="123" x="449" y="571.6738">ReservationService</text><rect fill="#E2E2F0" height="31.6094" rx="2.5" ry="2.5" style="stroke:#181818;stroke-width:0.5;" width="158" x="589" y="88.6094"/><text fill="#000000" font-family="sans-serif" font-size="14" lengthAdjust="spacing" textLength="144" x="596" y="110.1426">ReservationRepository</text><rect fill="#E2E2F0" height="31.6094" rx="2.5" ry="2.5" style="stroke:#181818;stroke-width:0.5;" width="158" x="589" y="550.1406"/><text fill="#000000" font-family="sans-serif" font-size="14" lengthAdjust="spacing" textLength="144" x="596" y="571.6738">ReservationRepository</text><text fill="#000000" font-family="sans-serif" font-size="14" lengthAdjust="spacing" textLength="61" x="775.5" y="118.1426">Database</text><path d="M791,67.6094 C791,57.6094 809,57.6094 809,57.6094 C809,57.6094 827,57.6094 827,67.6094 L827,93.6094 C827,103.6094 809,103.6094 809,103.6094 C809,103.6094 791,103.6094 791,93.6094 L791,67.6094 " fill="#E2E2F0" style="stroke:#181818;stroke-width:1.5;"/><path d="M791,67.6094 C791,77.6094 809,77.6094 809,77.6094 C809,77.6094 827,77.6094 827,67.6094 " fill="none" style="stroke:#181818;stroke-width:1.5;"/><text fill="#000000" font-family="sans-serif" font-size="14" lengthAdjust="spacing" textLength="61" x="775.5" y="564.6738">Database</text><path d="M791,577.75 C791,567.75 809,567.75 809,567.75 C809,567.75 827,567.75 827,577.75 L827,603.75 C827,613.75 809,613.75 809,613.75 C809,613.75 791,613.75 791,603.75 L791,577.75 " fill="#E2E2F0" style="stroke:#181818;stroke-width:1.5;"/><path d="M791,577.75 C791,587.75 809,587.75 809,587.75 C809,587.75 827,587.75 827,577.75 " fill="none" style="stroke:#181818;stroke-width:1.5;"/><rect fill="#FFFFFF" height="272.1641" style="stroke:#181818;stroke-width:1.0;" width="10" x="340.5" y="230.625"/><rect fill="#FFFFFF" height="195.1094" style="stroke:#181818;stroke-width:1.0;" width="10" x="505.5" y="260.9766"/><rect fill="#FFFFFF" height="60.7031" style="stroke:#181818;stroke-width:1.0;" width="10" x="663" y="334.6797"/><polygon fill="#181818" points="176.5,149.5703,186.5,153.5703,176.5,157.5703,180.5,153.5703" style="stroke:#181818;stroke-width:1.0;"/><line style="stroke:#181818;stroke-width:1.0;" x1="22.5" x2="182.5" y1="153.5703" y2="153.5703"/><text fill="#000000" font-family="sans-serif" font-size="13" lengthAdjust="spacing" textLength="112" x="29.5" y="148.7139">Fill reservation form</text><polygon fill="#181818" points="176.5,179.9219,186.5,183.9219,176.5,187.9219,180.5,183.9219" style="stroke:#181818;stroke-width:1.0;"/><line style="stroke:#181818;stroke-width:1.0;" x1="22.5" x2="182.5" y1="183.9219" y2="183.9219"/><text fill="#000000" font-family="sans-serif" font-size="13" lengthAdjust="spacing" textLength="84" x="29.5" y="179.0654">Click "Submit"</text><polygon fill="#181818" points="328.5,226.625,338.5,230.625,328.5,234.625,332.5,230.625" style="stroke:#181818;stroke-width:1.0;"/><line style="stroke:#181818;stroke-width:1.0;" x1="188.5" x2="334.5" y1="230.625" y2="230.625"/><text fill="#000000" font-family="sans-serif" font-size="13" lengthAdjust="spacing" textLength="133" x="195.5" y="209.417">POST /api/reservations</text><text fill="#000000" font-family="sans-serif" font-size="13" lengthAdjust="spacing" textLength="97" x="195.5" y="225.7686">{reservationData}</text><polygon fill="#181818" points="493.5,256.9766,503.5,260.9766,493.5,264.9766,497.5,260.9766" style="stroke:#181818;stroke-width:1.0;"/><line style="stroke:#181818;stroke-width:1.0;" x1="350.5" x2="499.5" y1="260.9766" y2="260.9766"/><text fill="#000000" font-family="sans-serif" font-size="13" lengthAdjust="spacing" textLength="136" x="357.5" y="256.1201">createReservation(data)</text><line style="stroke:#181818;stroke-width:1.0;" x1="515.5" x2="557.5" y1="291.3281" y2="291.3281"/><line style="stroke:#181818;stroke-width:1.0;" x1="557.5" x2="557.5" y1="291.3281" y2="304.3281"/><line style="stroke:#181818;stroke-width:1.0;" x1="516.5" x2="557.5" y1="304.3281" y2="304.3281"/><polygon fill="#181818" points="526.5,300.3281,516.5,304.3281,526.5,308.3281,522.5,304.3281" style="stroke:#181818;stroke-width:1.0;"/><text fill="#000000" font-family="sans-serif" font-size="13" lengthAdjust="spacing" textLength="76" x="522.5" y="286.4717">Validate data</text><polygon fill="#181818" points="651,330.6797,661,334.6797,651,338.6797,655,334.6797" style="stroke:#181818;stroke-width:1.0;"/><line style="stroke:#181818;stroke-width:1.0;" x1="515.5" x2="657" y1="334.6797" y2="334.6797"/><text fill="#000000" font-family="sans-serif" font-size="13" lengthAdjust="spacing" textLength="96" x="522.5" y="329.8232">save(reservation)</text><polygon fill="#181818" points="797,361.0313,807,365.0313,797,369.0313,801,365.0313" style="stroke:#181818;stroke-width:1.0;"/><line style="stroke:#181818;stroke-width:1.0;" x1="673" x2="803" y1="365.0313" y2="365.0313"/><text fill="#000000" font-family="sans-serif" font-size="13" lengthAdjust="spacing" textLength="112" x="680" y="360.1748">INSERT reservation</text><polygon fill="#181818" points="679,391.3828,669,395.3828,679,399.3828,675,395.3828" style="stroke:#181818;stroke-width:1.0;"/><line style="stroke:#181818;stroke-width:1.0;stroke-dasharray:2.0,2.0;" x1="673" x2="808" y1="395.3828" y2="395.3828"/><text fill="#000000" font-family="sans-serif" font-size="13" lengthAdjust="spacing" textLength="71" x="685" y="390.5264">Saved entity</text><polygon fill="#181818" points="526.5,421.7344,516.5,425.7344,526.5,429.7344,522.5,425.7344" style="stroke:#181818;stroke-width:1.0;"/><line style="stroke:#181818;stroke-width:1.0;stroke-dasharray:2.0,2.0;" x1="520.5" x2="667" y1="425.7344" y2="425.7344"/><text fill="#000000" font-family="sans-serif" font-size="13" lengthAdjust="spacing" textLength="106" x="532.5" y="420.8779">Reservation object</text><polygon fill="#181818" points="361.5,452.0859,351.5,456.0859,361.5,460.0859,357.5,456.0859" style="stroke:#181818;stroke-width:1.0;"/><line style="stroke:#181818;stroke-width:1.0;stroke-dasharray:2.0,2.0;" x1="355.5" x2="509.5" y1="456.0859" y2="456.0859"/><text fill="#000000" font-family="sans-serif" font-size="13" lengthAdjust="spacing" textLength="111" x="367.5" y="451.2295">Created reservation</text><polygon fill="#181818" points="199.5,498.7891,189.5,502.7891,199.5,506.7891,195.5,502.7891" style="stroke:#181818;stroke-width:1.0;"/><line style="stroke:#181818;stroke-width:1.0;stroke-dasharray:2.0,2.0;" x1="193.5" x2="344.5" y1="502.7891" y2="502.7891"/><text fill="#000000" font-family="sans-serif" font-size="13" lengthAdjust="spacing" textLength="70" x="205.5" y="481.5811">201 Created</text><text fill="#000000" font-family="sans-serif" font-size="13" lengthAdjust="spacing" textLength="70" x="205.5" y="497.9326">{reservation}</text><polygon fill="#181818" points="33.5,529.1406,23.5,533.1406,33.5,537.1406,29.5,533.1406" style="stroke:#181818;stroke-width:1.0;"/><line style="stroke:#181818;stroke-width:1.0;stroke-dasharray:2.0,2.0;" x1="27.5" x2="187.5" y1="533.1406" y2="533.1406"/><text fill="#000000" font-family="sans-serif" font-size="13" lengthAdjust="spacing" textLength="142" x="39.5" y="528.2842">Show success message</text><!--SRC=[TL8zJyCm4DtzAqwPsg4gC6P08WsLM00rXQcBQn_5aDZ1TbjLgFyTEyh71RMBTUTxVlVkdRto9SA3bB12X_R0lJ8QPb3WpnwrGCWLtrbUCSQ5DnRU0eZLt7ebLCsrXsHfZVQevKPFCckEeJvDW3lexiTeqcKHwjQK9Te6FwHNNnGXK08RU1jVnQwmDau5oQS67bCckUTRxX2Il8sQMfun5kU2sNslEeMbAakmn9GFOwiBk4Mfn3SanNvRAP-mhX11mqWflBuKQvZpMiq9fzleNv96LUTej0evKaVO44VYTlWKXCM096DFuepJWQEpYRN1wFKxBvMCgFY88g9RAJX-m0cHHsWREray8ppFKdXwBXvNQseOopEOzMH589E0sYj_OX8lCb5jz3kQxHSAFmZyP-sYCK6EUfCElGNKmz4AxsvkEvBnGiwKXwvZs78WYdyY3FXfZk3sGg1pK8M3xv3z0G00]--></g></svg>