<?xml version="1.0" encoding="us-ascii" standalone="no"?><svg xmlns="http://www.w3.org/2000/svg" xmlns:xlink="http://www.w3.org/1999/xlink" contentStyleType="text/css" height="647px" preserveAspectRatio="none" style="width:977px;height:647px;background:#FFFFFF;" version="1.1" viewBox="0 0 977 647" width="977px" zoomAndPan="magnify"><defs/><g><text fill="#000000" font-family="sans-serif" font-size="14" font-weight="bold" lengthAdjust="spacing" textLength="204" x="387.75" y="29.5332">Print Bill - Sequence Diagram</text><rect fill="#FFFFFF" height="332.8672" style="stroke:#181818;stroke-width:1.0;" width="10" x="353.5" y="183.9219"/><rect fill="#FFFFFF" height="255.8125" style="stroke:#181818;stroke-width:1.0;" width="10" x="530.5" y="214.2734"/><rect fill="#FFFFFF" height="60.7031" style="stroke:#181818;stroke-width:1.0;" width="10" x="685.5" y="244.625"/><rect fill="#FFFFFF" height="60.7031" style="stroke:#181818;stroke-width:1.0;" width="10" x="834" y="379.0313"/><line style="stroke:#181818;stroke-width:0.5;stroke-dasharray:5.0,5.0;" x1="22" x2="22" y1="121.2188" y2="565.1406"/><line style="stroke:#181818;stroke-width:0.5;stroke-dasharray:5.0,5.0;" x1="162" x2="162" y1="121.2188" y2="565.1406"/><line style="stroke:#181818;stroke-width:0.5;stroke-dasharray:5.0,5.0;" x1="358" x2="358" y1="121.2188" y2="565.1406"/><line style="stroke:#181818;stroke-width:0.5;stroke-dasharray:5.0,5.0;" x1="535.5" x2="535.5" y1="121.2188" y2="565.1406"/><line style="stroke:#181818;stroke-width:0.5;stroke-dasharray:5.0,5.0;" x1="690.5" x2="690.5" y1="121.2188" y2="565.1406"/><line style="stroke:#181818;stroke-width:0.5;stroke-dasharray:5.0,5.0;" x1="838.5" x2="838.5" y1="121.2188" y2="565.1406"/><line style="stroke:#181818;stroke-width:0.5;stroke-dasharray:5.0,5.0;" x1="941.5" x2="941.5" y1="121.2188" y2="565.1406"/><text fill="#000000" font-family="sans-serif" font-size="14" lengthAdjust="spacing" textLength="29" x="5" y="118.1426">User</text><ellipse cx="22.5" cy="52.1094" fill="#E2E2F0" rx="8" ry="8" style="stroke:#181818;stroke-width:0.5;"/><path d="M22.5,60.1094 L22.5,87.1094 M9.5,68.1094 L35.5,68.1094 M22.5,87.1094 L9.5,102.1094 M22.5,87.1094 L35.5,102.1094 " fill="none" style="stroke:#181818;stroke-width:0.5;"/><text fill="#000000" font-family="sans-serif" font-size="14" lengthAdjust="spacing" textLength="29" x="5" y="578.6738">User</text><ellipse cx="22.5" cy="590.25" fill="#E2E2F0" rx="8" ry="8" style="stroke:#181818;stroke-width:0.5;"/><path d="M22.5,598.25 L22.5,625.25 M9.5,606.25 L35.5,606.25 M22.5,625.25 L9.5,640.25 M22.5,625.25 L35.5,640.25 " fill="none" style="stroke:#181818;stroke-width:0.5;"/><rect fill="#E2E2F0" height="49.2188" rx="2.5" ry="2.5" style="stroke:#181818;stroke-width:0.5;" width="75" x="125" y="71"/><text fill="#000000" font-family="sans-serif" font-size="14" lengthAdjust="spacing" textLength="58" x="133.5" y="92.5332">Frontend</text><text fill="#000000" font-family="sans-serif" font-size="14" lengthAdjust="spacing" textLength="61" x="132" y="110.1426">(Browser)</text><rect fill="#E2E2F0" height="49.2188" rx="2.5" ry="2.5" style="stroke:#181818;stroke-width:0.5;" width="75" x="125" y="564.1406"/><text fill="#000000" font-family="sans-serif" font-size="14" lengthAdjust="spacing" textLength="58" x="133.5" y="585.6738">Frontend</text><text fill="#000000" font-family="sans-serif" font-size="14" lengthAdjust="spacing" textLength="61" x="132" y="603.2832">(Browser)</text><rect fill="#E2E2F0" height="31.6094" rx="2.5" ry="2.5" style="stroke:#181818;stroke-width:0.5;" width="113" x="302" y="88.6094"/><text fill="#000000" font-family="sans-serif" font-size="14" lengthAdjust="spacing" textLength="99" x="309" y="110.1426">BillingController</text><rect fill="#E2E2F0" height="31.6094" rx="2.5" ry="2.5" style="stroke:#181818;stroke-width:0.5;" width="113" x="302" y="564.1406"/><text fill="#000000" font-family="sans-serif" font-size="14" lengthAdjust="spacing" textLength="99" x="309" y="585.6738">BillingController</text><rect fill="#E2E2F0" height="31.6094" rx="2.5" ry="2.5" style="stroke:#181818;stroke-width:0.5;" width="98" x="486.5" y="88.6094"/><text fill="#000000" font-family="sans-serif" font-size="14" lengthAdjust="spacing" textLength="84" x="493.5" y="110.1426">BillingService</text><rect fill="#E2E2F0" height="31.6094" rx="2.5" ry="2.5" style="stroke:#181818;stroke-width:0.5;" width="98" x="486.5" y="564.1406"/><text fill="#000000" font-family="sans-serif" font-size="14" lengthAdjust="spacing" textLength="84" x="493.5" y="585.6738">BillingService</text><rect fill="#E2E2F0" height="31.6094" rx="2.5" ry="2.5" style="stroke:#181818;stroke-width:0.5;" width="158" x="611.5" y="88.6094"/><text fill="#000000" font-family="sans-serif" font-size="14" lengthAdjust="spacing" textLength="144" x="618.5" y="110.1426">ReservationRepository</text><rect fill="#E2E2F0" height="31.6094" rx="2.5" ry="2.5" style="stroke:#181818;stroke-width:0.5;" width="158" x="611.5" y="564.1406"/><text fill="#000000" font-family="sans-serif" font-size="14" lengthAdjust="spacing" textLength="144" x="618.5" y="585.6738">ReservationRepository</text><rect fill="#E2E2F0" height="31.6094" rx="2.5" ry="2.5" style="stroke:#181818;stroke-width:0.5;" width="119" x="779.5" y="88.6094"/><text fill="#000000" font-family="sans-serif" font-size="14" lengthAdjust="spacing" textLength="105" x="786.5" y="110.1426">BillingRepository</text><rect fill="#E2E2F0" height="31.6094" rx="2.5" ry="2.5" style="stroke:#181818;stroke-width:0.5;" width="119" x="779.5" y="564.1406"/><text fill="#000000" font-family="sans-serif" font-size="14" lengthAdjust="spacing" textLength="105" x="786.5" y="585.6738">BillingRepository</text><text fill="#000000" font-family="sans-serif" font-size="14" lengthAdjust="spacing" textLength="61" x="908.5" y="118.1426">Database</text><path d="M924,67.6094 C924,57.6094 942,57.6094 942,57.6094 C942,57.6094 960,57.6094 960,67.6094 L960,93.6094 C960,103.6094 942,103.6094 942,103.6094 C942,103.6094 924,103.6094 924,93.6094 L924,67.6094 " fill="#E2E2F0" style="stroke:#181818;stroke-width:1.5;"/><path d="M924,67.6094 C924,77.6094 942,77.6094 942,77.6094 C942,77.6094 960,77.6094 960,67.6094 " fill="none" style="stroke:#181818;stroke-width:1.5;"/><text fill="#000000" font-family="sans-serif" font-size="14" lengthAdjust="spacing" textLength="61" x="908.5" y="578.6738">Database</text><path d="M924,591.75 C924,581.75 942,581.75 942,581.75 C942,581.75 960,581.75 960,591.75 L960,617.75 C960,627.75 942,627.75 942,627.75 C942,627.75 924,627.75 924,617.75 L924,591.75 " fill="#E2E2F0" style="stroke:#181818;stroke-width:1.5;"/><path d="M924,591.75 C924,601.75 942,601.75 942,601.75 C942,601.75 960,601.75 960,591.75 " fill="none" style="stroke:#181818;stroke-width:1.5;"/><rect fill="#FFFFFF" height="332.8672" style="stroke:#181818;stroke-width:1.0;" width="10" x="353.5" y="183.9219"/><rect fill="#FFFFFF" height="255.8125" style="stroke:#181818;stroke-width:1.0;" width="10" x="530.5" y="214.2734"/><rect fill="#FFFFFF" height="60.7031" style="stroke:#181818;stroke-width:1.0;" width="10" x="685.5" y="244.625"/><rect fill="#FFFFFF" height="60.7031" style="stroke:#181818;stroke-width:1.0;" width="10" x="834" y="379.0313"/><polygon fill="#181818" points="150.5,149.5703,160.5,153.5703,150.5,157.5703,154.5,153.5703" style="stroke:#181818;stroke-width:1.0;"/><line style="stroke:#181818;stroke-width:1.0;" x1="22.5" x2="156.5" y1="153.5703" y2="153.5703"/><text fill="#000000" font-family="sans-serif" font-size="13" lengthAdjust="spacing" textLength="92" x="29.5" y="148.7139">Click "Print Bill"</text><polygon fill="#181818" points="341.5,179.9219,351.5,183.9219,341.5,187.9219,345.5,183.9219" style="stroke:#181818;stroke-width:1.0;"/><line style="stroke:#181818;stroke-width:1.0;" x1="162.5" x2="347.5" y1="183.9219" y2="183.9219"/><text fill="#000000" font-family="sans-serif" font-size="13" lengthAdjust="spacing" textLength="172" x="169.5" y="179.0654">GET /api/billing/{reservationId}</text><polygon fill="#181818" points="518.5,210.2734,528.5,214.2734,518.5,218.2734,522.5,214.2734" style="stroke:#181818;stroke-width:1.0;"/><line style="stroke:#181818;stroke-width:1.0;" x1="363.5" x2="524.5" y1="214.2734" y2="214.2734"/><text fill="#000000" font-family="sans-serif" font-size="13" lengthAdjust="spacing" textLength="148" x="370.5" y="209.417">generateBill(reservationId)</text><polygon fill="#181818" points="673.5,240.625,683.5,244.625,673.5,248.625,677.5,244.625" style="stroke:#181818;stroke-width:1.0;"/><line style="stroke:#181818;stroke-width:1.0;" x1="540.5" x2="679.5" y1="244.625" y2="244.625"/><text fill="#000000" font-family="sans-serif" font-size="13" lengthAdjust="spacing" textLength="126" x="547.5" y="239.7686">findById(reservationId)</text><polygon fill="#181818" points="930,270.9766,940,274.9766,930,278.9766,934,274.9766" style="stroke:#181818;stroke-width:1.0;"/><line style="stroke:#181818;stroke-width:1.0;" x1="695.5" x2="936" y1="274.9766" y2="274.9766"/><text fill="#000000" font-family="sans-serif" font-size="13" lengthAdjust="spacing" textLength="116" x="702.5" y="270.1201">SELECT reservation</text><polygon fill="#181818" points="701.5,301.3281,691.5,305.3281,701.5,309.3281,697.5,305.3281" style="stroke:#181818;stroke-width:1.0;"/><line style="stroke:#181818;stroke-width:1.0;stroke-dasharray:2.0,2.0;" x1="695.5" x2="941" y1="305.3281" y2="305.3281"/><text fill="#000000" font-family="sans-serif" font-size="13" lengthAdjust="spacing" textLength="96" x="707.5" y="300.4717">Reservation data</text><line style="stroke:#181818;stroke-width:1.0;" x1="540.5" x2="582.5" y1="335.6797" y2="335.6797"/><line style="stroke:#181818;stroke-width:1.0;" x1="582.5" x2="582.5" y1="335.6797" y2="348.6797"/><line style="stroke:#181818;stroke-width:1.0;" x1="541.5" x2="582.5" y1="348.6797" y2="348.6797"/><polygon fill="#181818" points="551.5,344.6797,541.5,348.6797,551.5,352.6797,547.5,348.6797" style="stroke:#181818;stroke-width:1.0;"/><text fill="#000000" font-family="sans-serif" font-size="13" lengthAdjust="spacing" textLength="130" x="547.5" y="330.8232">Calculate total amount</text><polygon fill="#181818" points="822,375.0313,832,379.0313,822,383.0313,826,379.0313" style="stroke:#181818;stroke-width:1.0;"/><line style="stroke:#181818;stroke-width:1.0;" x1="540.5" x2="828" y1="379.0313" y2="379.0313"/><text fill="#000000" font-family="sans-serif" font-size="13" lengthAdjust="spacing" textLength="50" x="547.5" y="374.1748">save(bill)</text><polygon fill="#181818" points="930,405.3828,940,409.3828,930,413.3828,934,409.3828" style="stroke:#181818;stroke-width:1.0;"/><line style="stroke:#181818;stroke-width:1.0;" x1="844" x2="936" y1="409.3828" y2="409.3828"/><text fill="#000000" font-family="sans-serif" font-size="13" lengthAdjust="spacing" textLength="66" x="851" y="404.5264">INSERT bill</text><polygon fill="#181818" points="850,435.7344,840,439.7344,850,443.7344,846,439.7344" style="stroke:#181818;stroke-width:1.0;"/><line style="stroke:#181818;stroke-width:1.0;stroke-dasharray:2.0,2.0;" x1="844" x2="941" y1="439.7344" y2="439.7344"/><text fill="#000000" font-family="sans-serif" font-size="13" lengthAdjust="spacing" textLength="55" x="856" y="434.8779">Saved bill</text><polygon fill="#181818" points="374.5,466.0859,364.5,470.0859,374.5,474.0859,370.5,470.0859" style="stroke:#181818;stroke-width:1.0;"/><line style="stroke:#181818;stroke-width:1.0;stroke-dasharray:2.0,2.0;" x1="368.5" x2="534.5" y1="470.0859" y2="470.0859"/><text fill="#000000" font-family="sans-serif" font-size="13" lengthAdjust="spacing" textLength="57" x="380.5" y="465.2295">Bill object</text><polygon fill="#181818" points="173.5,512.7891,163.5,516.7891,173.5,520.7891,169.5,516.7891" style="stroke:#181818;stroke-width:1.0;"/><line style="stroke:#181818;stroke-width:1.0;stroke-dasharray:2.0,2.0;" x1="167.5" x2="357.5" y1="516.7891" y2="516.7891"/><text fill="#000000" font-family="sans-serif" font-size="13" lengthAdjust="spacing" textLength="44" x="179.5" y="495.5811">200 OK</text><text fill="#000000" font-family="sans-serif" font-size="13" lengthAdjust="spacing" textLength="24" x="179.5" y="511.9326">{bill}</text><polygon fill="#181818" points="33.5,543.1406,23.5,547.1406,33.5,551.1406,29.5,547.1406" style="stroke:#181818;stroke-width:1.0;"/><line style="stroke:#181818;stroke-width:1.0;stroke-dasharray:2.0,2.0;" x1="27.5" x2="161.5" y1="547.1406" y2="547.1406"/><text fill="#000000" font-family="sans-serif" font-size="13" lengthAdjust="spacing" textLength="116" x="39.5" y="542.2842">Display printable bill</text><!--SRC=[TLDDRy8m3BtdLrWzmG61TknXXtviGfksYR8R5xVrKBQGT6bWGeZ_lgIqDAtWPiVFp_QpOxWH11-QImCH5m9caD7ldcH1a73SQjmnXeLH6Zvhqgn2RNZ1AxJuu4ahQKYM6pc9jFgpyMa0M4FtFaGxUYwtiOrf9GJf1jkxDz4PwGClg86szX2t8blsW8OhkQ9ArTosUcpWeyXD-b6AzyfAD9XZJH0ahTL0aeWnfmJC7gzpXX0BNln0qEiOi2xeWFsG8JodQvXZnUVvfTZyfFj6b-NPgSsjHxuqhBSTNwj425kIf2tMbPmCUAOzJwSRQmt7C18dX2yko-YuBE-oZEKS-OuqYKB8qjSqNeF7mf88PhTAUW_Wr6ObtQtcztwTFaPHx8M36sLG0ExKNXeVwYqqX1eFD76gUrFv6_ViRfhbMvQkrk2IkZ46b9cbB2zXhtcVjEzcT0VDRrFvDnN6pxqkoz_uuDOU5WjuVzd8aojxzdFzW-dFpoQxWmtjVwuhWKUet9LYRlzzq_W_]--></g></svg>