<?xml version="1.0" encoding="us-ascii" standalone="no"?><svg xmlns="http://www.w3.org/2000/svg" xmlns:xlink="http://www.w3.org/1999/xlink" contentStyleType="text/css" height="1140px" preserveAspectRatio="none" style="width:982px;height:1140px;background:#FFFFFF;" version="1.1" viewBox="0 0 982 1140" width="982px" zoomAndPan="magnify"><defs/><g><text fill="#000000" font-family="sans-serif" font-size="14" font-weight="bold" lengthAdjust="spacing" textLength="309" x="329.5" y="24.5332">OceanView Reservation System - Use Cases</text><!--cluster OceanView Reservation System--><g id="cluster_OceanView Reservation System"><rect fill="none" height="576" rx="2.5" ry="2.5" style="stroke:#181818;stroke-width:1.0;" width="621" x="355" y="372.1094"/><text fill="#000000" font-family="sans-serif" font-size="14" font-weight="bold" lengthAdjust="spacing" textLength="222" x="554.5" y="388.6426">OceanView Reservation System</text></g><g id="elem_UC1"><ellipse cx="864.734" cy="665.0611" fill="#F1F1F1" rx="36.234" ry="15.4517" style="stroke:#181818;stroke-width:0.5;"/><text fill="#000000" font-family="sans-serif" font-size="14" lengthAdjust="spacing" textLength="35" x="847.234" y="668.7896">Login</text></g><g id="elem_UC2"><ellipse cx="455.0873" cy="427.2268" fill="#F1F1F1" rx="83.5873" ry="19.1175" style="stroke:#181818;stroke-width:0.5;"/><text fill="#000000" font-family="sans-serif" font-size="14" lengthAdjust="spacing" textLength="123" x="393.5873" y="430.9554">Create Reservation</text></g><g id="elem_UC3"><ellipse cx="454.896" cy="499.0886" fill="#F1F1F1" rx="77.896" ry="17.9792" style="stroke:#181818;stroke-width:0.5;"/><text fill="#000000" font-family="sans-serif" font-size="14" lengthAdjust="spacing" textLength="109" x="398.4355" y="503.356">View Reservation</text></g><g id="elem_UC4"><ellipse cx="454.7516" cy="711.0597" fill="#F1F1F1" rx="82.7516" ry="18.9503" style="stroke:#181818;stroke-width:0.5;"/><text fill="#000000" font-family="sans-serif" font-size="14" lengthAdjust="spacing" textLength="121" x="394.2516" y="714.7882">Modify Reservation</text></g><g id="elem_UC5"><ellipse cx="455.0066" cy="638.3107" fill="#F1F1F1" rx="84.0066" ry="19.2013" style="stroke:#181818;stroke-width:0.5;"/><text fill="#000000" font-family="sans-serif" font-size="14" lengthAdjust="spacing" textLength="124" x="393.0066" y="642.0392">Cancel Reservation</text></g><g id="elem_UC6"><ellipse cx="455.1317" cy="781.0846" fill="#F1F1F1" rx="47.6317" ry="15.4752" style="stroke:#181818;stroke-width:0.5;"/><text fill="#000000" font-family="sans-serif" font-size="14" lengthAdjust="spacing" textLength="51" x="427.6963" y="785.3541">Print Bill</text></g><g id="elem_UC7"><ellipse cx="454.9169" cy="915.9927" fill="#F1F1F1" rx="67.4169" ry="15.8834" style="stroke:#181818;stroke-width:0.5;"/><text fill="#000000" font-family="sans-serif" font-size="14" lengthAdjust="spacing" textLength="80" x="411.9169" y="920.5093">Run Reports</text></g><g id="elem_UC7a"><ellipse cx="864.63" cy="903.1354" fill="#F1F1F1" rx="95.63" ry="21.526" style="stroke:#181818;stroke-width:0.5;"/><text fill="#000000" font-family="sans-serif" font-size="14" lengthAdjust="spacing" textLength="151" x="789.13" y="906.8639">View Occupancy Report</text></g><g id="elem_UC7b"><ellipse cx="864.535" cy="825.9164" fill="#F1F1F1" rx="89.535" ry="20.307" style="stroke:#181818;stroke-width:0.5;"/><text fill="#000000" font-family="sans-serif" font-size="14" lengthAdjust="spacing" textLength="137" x="796.035" y="829.6449">View Revenue Report</text></g><g id="elem_UC8"><ellipse cx="454.7843" cy="568.0611" fill="#F1F1F1" rx="31.2843" ry="15.4517" style="stroke:#181818;stroke-width:0.5;"/><text fill="#000000" font-family="sans-serif" font-size="14" lengthAdjust="spacing" textLength="28" x="440.7843" y="571.7896">Help</text></g><g id="elem_UC9"><ellipse cx="455.2113" cy="848.2516" fill="#F1F1F1" rx="71.2113" ry="16.6423" style="stroke:#181818;stroke-width:0.5;"/><text fill="#000000" font-family="sans-serif" font-size="14" lengthAdjust="spacing" textLength="91" x="406.7113" y="852.7682">Manage Users</text></g><!--entity guest--><g id="elem_guest"><ellipse cx="104.5" cy="183.6094" fill="#F1F1F1" rx="8" ry="8" style="stroke:#181818;stroke-width:0.5;"/><path d="M104.5,191.6094 L104.5,218.6094 M91.5,199.6094 L117.5,199.6094 M104.5,218.6094 L91.5,233.6094 M104.5,218.6094 L117.5,233.6094 " fill="none" style="stroke:#181818;stroke-width:0.5;"/><text fill="#000000" font-family="sans-serif" font-size="14" lengthAdjust="spacing" textLength="38" x="85.5" y="249.6426">Guest</text></g><!--entity staff--><g id="elem_staff"><ellipse cx="104.5" cy="531.6094" fill="#F1F1F1" rx="8" ry="8" style="stroke:#181818;stroke-width:0.5;"/><path d="M104.5,539.6094 L104.5,566.6094 M91.5,547.6094 L117.5,547.6094 M104.5,566.6094 L91.5,581.6094 M104.5,566.6094 L117.5,581.6094 " fill="none" style="stroke:#181818;stroke-width:0.5;"/><text fill="#000000" font-family="sans-serif" font-size="14" lengthAdjust="spacing" textLength="29" x="90" y="597.6426">Staff</text></g><!--entity manager--><g id="elem_manager"><ellipse cx="104.5" cy="879.6094" fill="#F1F1F1" rx="8" ry="8" style="stroke:#181818;stroke-width:0.5;"/><path d="M104.5,887.6094 L104.5,914.6094 M91.5,895.6094 L117.5,895.6094 M104.5,914.6094 L91.5,929.6094 M104.5,914.6094 L117.5,929.6094 " fill="none" style="stroke:#181818;stroke-width:0.5;"/><text fill="#000000" font-family="sans-serif" font-size="14" lengthAdjust="spacing" textLength="56" x="76.5" y="945.6426">Manager</text></g><g id="elem_GMN43"><path d="M786,296.6094 L786,355.6641 L943,355.6641 L943,306.6094 L933,296.6094 L786,296.6094 " fill="#FEFFDD" style="stroke:#181818;stroke-width:0.5;"/><path d="M933,296.6094 L933,306.6094 L943,306.6094 L933,296.6094 " fill="#FEFFDD" style="stroke:#181818;stroke-width:1.0;"/><text fill="#000000" font-family="sans-serif" font-size="13" lengthAdjust="spacing" textLength="136" x="792" y="315.1045">Managers can generate</text><text fill="#000000" font-family="sans-serif" font-size="13" lengthAdjust="spacing" textLength="136" x="792" y="331.4561">occupancy and revenue</text><text fill="#000000" font-family="sans-serif" font-size="13" lengthAdjust="spacing" textLength="114" x="792" y="347.8076">reports for analytics</text></g><g id="elem_GMN46"><path d="M6,44.6094 L6,103.6641 L203,103.6641 L203,54.6094 L193,44.6094 L6,44.6094 " fill="#FEFFDD" style="stroke:#181818;stroke-width:0.5;"/><path d="M193,44.6094 L193,54.6094 L203,54.6094 L193,44.6094 " fill="#FEFFDD" style="stroke:#181818;stroke-width:1.0;"/><text fill="#000000" font-family="sans-serif" font-size="13" lengthAdjust="spacing" textLength="176" x="12" y="63.1045">Guests can make reservations</text><text fill="#000000" font-family="sans-serif" font-size="13" lengthAdjust="spacing" textLength="130" x="12" y="79.4561">without authentication,</text><text fill="#000000" font-family="sans-serif" font-size="13" lengthAdjust="spacing" textLength="154" x="12" y="95.8076">Staff/Manager require login</text></g><!--link guest to UC2--><g id="link_guest_UC2"><path d="M123.58,205.8894 C165.2,188.2994 269.53,152.0094 339,195.1094 C416.74,243.3394 442.5648,355.5708 450.2948,402.0108 " fill="none" id="guest-to-UC2" style="stroke:#181818;stroke-width:1.0;"/><polygon fill="#181818" points="451.28,407.9294,453.748,398.3948,450.459,402.9972,445.8566,399.7083,451.28,407.9294" style="stroke:#181818;stroke-width:1.0;"/><text fill="#000000" font-family="sans-serif" font-size="13" lengthAdjust="spacing" textLength="98" x="237" y="171.6045">make reservation</text></g><!--link guest to UC3--><g id="link_guest_UC3"><path d="M123.78,215.6294 C173.85,220.1994 311.35,235.6294 339,269.1094 C352.74,285.7494 334.05,445.8494 347,463.1094 C356.88,476.2794 366.1253,482.7307 381.7053,488.0807 " fill="none" id="guest-to-UC3" style="stroke:#181818;stroke-width:1.0;"/><polygon fill="#181818" points="387.38,490.0294,380.167,483.3232,382.651,488.4055,377.5688,490.8896,387.38,490.0294" style="stroke:#181818;stroke-width:1.0;"/><text fill="#000000" font-family="sans-serif" font-size="13" lengthAdjust="spacing" textLength="90" x="241" y="227.6045">view reservation</text></g><!--link guest to UC8--><g id="link_guest_UC8"><path d="M123.55,247.4194 C145.52,285.6894 185.62,348.6394 233,391.1094 C273.31,427.2394 309.52,405.7094 339,451.1094 C349.09,466.6494 335.35,519.6994 347,534.1094 C365.25,556.6994 392.543,563.8811 417.143,566.4711 " fill="none" id="guest-to-UC8" style="stroke:#181818;stroke-width:1.0;"/><polygon fill="#181818" points="423.11,567.0994,414.5783,562.179,418.1375,566.5758,413.7406,570.135,423.11,567.0994" style="stroke:#181818;stroke-width:1.0;"/><text fill="#000000" font-family="sans-serif" font-size="13" lengthAdjust="spacing" textLength="70" x="251" y="387.6045">access help</text></g><!--link staff to UC1--><g id="link_staff_UC1"><path d="M119.08,524.6094 C138.87,469.3294 176.17,362.4994 203,270.1094 C218.45,216.8994 189.36,183.2494 233,149.1094 C270.11,120.0794 294.4,133.9294 339,149.1094 C551.41,221.4094 589.88,289.4594 739,457.1094 C795.5,520.6294 837.8796,607.9416 854.2896,644.2616 " fill="none" id="staff-to-UC1" style="stroke:#181818;stroke-width:1.0;"/><polygon fill="#181818" points="856.76,649.7294,856.6995,639.8807,854.7013,645.1729,849.4091,643.1746,856.76,649.7294" style="stroke:#181818;stroke-width:1.0;"/><text fill="#000000" font-family="sans-serif" font-size="13" lengthAdjust="spacing" textLength="71" x="419.5" y="150.6045">authenticate</text></g><!--link staff to UC2--><g id="link_staff_UC2"><path d="M112.3,522.9794 C124.73,464.8694 157.18,357.6394 233,311.1094 C273.15,286.4694 295.51,292.9894 339,311.1094 C386.38,330.8594 420.9479,375.6598 439.0679,403.1498 " fill="none" id="staff-to-UC2" style="stroke:#181818;stroke-width:1.0;"/><polygon fill="#181818" points="442.37,408.1594,440.7566,398.4436,439.6183,403.9847,434.0771,402.8463,442.37,408.1594" style="stroke:#181818;stroke-width:1.0;"/><text fill="#000000" font-family="sans-serif" font-size="13" lengthAdjust="spacing" textLength="102" x="235" y="291.6045">create reservation</text></g><!--link staff to UC3--><g id="link_staff_UC3"><path d="M119.21,550.2894 C141.35,532.0694 187.16,497.8794 233,485.1094 C288.74,469.5894 349.4315,475.9979 394.8415,484.8779 " fill="none" id="staff-to-UC3" style="stroke:#181818;stroke-width:1.0;"/><polygon fill="#181818" points="400.73,486.0294,392.665,480.3765,395.8229,485.0698,391.1296,488.2278,400.73,486.0294" style="stroke:#181818;stroke-width:1.0;"/><text fill="#000000" font-family="sans-serif" font-size="13" lengthAdjust="spacing" textLength="90" x="241" y="473.6045">view reservation</text></g><!--link staff to UC4--><g id="link_staff_UC4"><path d="M119.11,597.5594 C137.61,640.1294 175.19,709.5094 233,739.1094 C274.93,760.5794 292.22,744.7194 339,739.1094 C360.52,736.5294 378.0357,732.8395 398.0057,727.6095 " fill="none" id="staff-to-UC4" style="stroke:#181818;stroke-width:1.0;"/><polygon fill="#181818" points="403.81,726.0894,394.0902,724.5,398.9731,727.3561,396.117,732.239,403.81,726.0894" style="stroke:#181818;stroke-width:1.0;"/><text fill="#000000" font-family="sans-serif" font-size="13" lengthAdjust="spacing" textLength="104" x="234" y="735.6045">modify reservation</text></g><!--link staff to UC5--><g id="link_staff_UC5"><path d="M119.23,565.6294 C142.56,571.5694 191.42,583.8294 233,593.1094 C285.93,604.9294 340.383,615.9706 384.633,624.6806 " fill="none" id="staff-to-UC5" style="stroke:#181818;stroke-width:1.0;"/><polygon fill="#181818" points="390.52,625.8394,382.462,620.1765,385.6141,624.8737,380.9169,628.0259,390.52,625.8394" style="stroke:#181818;stroke-width:1.0;"/><text fill="#000000" font-family="sans-serif" font-size="13" lengthAdjust="spacing" textLength="104" x="234" y="589.6045">cancel reservation</text></g><!--link staff to UC6--><g id="link_staff_UC6"><path d="M109.28,601.3094 C117.97,667.0694 145.89,798.0194 233,855.1094 C272.4,880.9394 302.64,885.0594 339,855.1094 C353.33,843.3094 334.59,827.9194 347,814.1094 C362.53,796.8294 380.9799,789.5896 402.5199,785.6096 " fill="none" id="staff-to-UC6" style="stroke:#181818;stroke-width:1.0;"/><polygon fill="#181818" points="408.42,784.5194,398.843,782.2212,403.5032,785.4279,400.2966,790.0881,408.42,784.5194" style="stroke:#181818;stroke-width:1.0;"/><text fill="#000000" font-family="sans-serif" font-size="13" lengthAdjust="spacing" textLength="45" x="263.5" y="851.6045">print bill</text></g><!--link staff to UC8--><g id="link_staff_UC8"><path d="M119.27,562.4794 C142.65,563.0994 191.6,564.3394 233,565.1094 C300.91,566.3694 374.5604,567.2533 417.2504,567.7233 " fill="none" id="staff-to-UC8" style="stroke:#181818;stroke-width:1.0;"/><polygon fill="#181818" points="423.25,567.7894,414.2946,563.6905,418.2503,567.7343,414.2065,571.6901,423.25,567.7894" style="stroke:#181818;stroke-width:1.0;"/><text fill="#000000" font-family="sans-serif" font-size="13" lengthAdjust="spacing" textLength="70" x="251" y="561.6045">access help</text></g><!--link manager to UC1--><g id="link_manager_UC1"><path d="M117.41,949.3494 C134.36,997.4394 170.54,1076.7594 233,1111.1094 C274.28,1133.8094 293.04,1121.4694 339,1111.1094 C531,1067.8294 616.07,1074.8094 739,921.1094 C776.85,873.7894 743.27,842.9694 769,788.1094 C789.69,743.9794 824.1939,705.0775 845.0739,683.5375 " fill="none" id="manager-to-UC1" style="stroke:#181818;stroke-width:1.0;"/><polygon fill="#181818" points="849.25,679.2294,840.1137,682.9075,845.7699,682.8195,845.8579,688.4757,849.25,679.2294" style="stroke:#181818;stroke-width:1.0;"/><text fill="#000000" font-family="sans-serif" font-size="13" lengthAdjust="spacing" textLength="71" x="419.5" y="1063.6045">authenticate</text></g><!--link manager to UC2--><g id="link_manager_UC2"><path d="M121.51,870.6894 C143.37,815.2494 182.2,710.6694 203,618.1094 C215.22,563.7294 191.3,406.0894 233,369.1094 C290.13,318.4494 381.4426,373.2472 425.6426,405.2972 " fill="none" id="manager-to-UC2" style="stroke:#181818;stroke-width:1.0;"/><polygon fill="#181818" points="430.5,408.8194,425.562,400.2979,426.4522,405.8842,420.8658,406.7744,430.5,408.8194" style="stroke:#181818;stroke-width:1.0;"/><text fill="#000000" font-family="sans-serif" font-size="13" lengthAdjust="spacing" textLength="102" x="235" y="346.6045">create reservation</text></g><!--link manager to UC3--><g id="link_manager_UC3"><path d="M118.57,870.8494 C149.78,777.3294 226.53,548.7494 233,543.1094 C255.02,523.9394 320.5202,512.8629 376.2902,506.3729 " fill="none" id="manager-to-UC3" style="stroke:#181818;stroke-width:1.0;"/><polygon fill="#181818" points="382.25,505.6794,372.848,502.7465,377.2835,506.2573,373.7727,510.6929,382.25,505.6794" style="stroke:#181818;stroke-width:1.0;"/><text fill="#000000" font-family="sans-serif" font-size="13" lengthAdjust="spacing" textLength="90" x="241" y="509.6045">view reservation</text></g><!--link manager to UC4--><g id="link_manager_UC4"><path d="M132.55,921.0594 C181.09,938.7094 283.08,966.3794 339,913.1094 C352.29,900.4494 335.99,762.7994 347,748.1094 C356.49,735.4494 364.9634,729.1729 379.8434,723.6629 " fill="none" id="manager-to-UC4" style="stroke:#181818;stroke-width:1.0;"/><polygon fill="#181818" points="385.47,721.5794,375.641,720.9536,380.7811,723.3156,378.4191,728.4557,385.47,721.5794" style="stroke:#181818;stroke-width:1.0;"/><text fill="#000000" font-family="sans-serif" font-size="13" lengthAdjust="spacing" textLength="104" x="234" y="909.6045">modify reservation</text></g><!--link manager to UC5--><g id="link_manager_UC5"><path d="M132.63,893.1894 C158.28,877.3194 197.96,853.0994 233,833.1094 C279.46,806.6094 309.78,820.9194 339,776.1094 C351.42,757.0694 333.02,692.0394 347,674.1094 C356.46,661.9794 364.5544,655.9857 379.0344,650.6157 " fill="none" id="manager-to-UC5" style="stroke:#181818;stroke-width:1.0;"/><polygon fill="#181818" points="384.66,648.5294,374.8307,647.9084,379.972,650.268,377.6125,655.4092,384.66,648.5294" style="stroke:#181818;stroke-width:1.0;"/><text fill="#000000" font-family="sans-serif" font-size="13" lengthAdjust="spacing" textLength="104" x="234" y="772.6045">cancel reservation</text></g><!--link manager to UC6--><g id="link_manager_UC6"><path d="M132.55,931.1194 C180.62,965.7894 281.29,1025.9494 339,971.1094 C351.66,959.0794 336.27,827.8994 347,814.1094 C361.39,795.6194 380.0239,788.2293 401.9739,784.5193 " fill="none" id="manager-to-UC6" style="stroke:#181818;stroke-width:1.0;"/><polygon fill="#181818" points="407.89,783.5194,398.3492,781.0752,402.9599,784.3527,399.6825,788.9633,407.89,783.5194" style="stroke:#181818;stroke-width:1.0;"/><text fill="#000000" font-family="sans-serif" font-size="13" lengthAdjust="spacing" textLength="45" x="263.5" y="967.6045">print bill</text></g><!--link manager to UC7--><g id="link_manager_UC7"><path d="M120.78,949.3494 C139.82,992.1394 176.87,1058.3694 233,1087.1094 C274.93,1108.5794 297.42,1109.2594 339,1087.1094 C402.15,1053.4794 434.8922,973.7112 447.0322,937.9312 " fill="none" id="manager-to-UC7" style="stroke:#181818;stroke-width:1.0;"/><polygon fill="#181818" points="448.96,932.2494,442.2804,939.4869,447.3535,936.9843,449.8562,942.0574,448.96,932.2494" style="stroke:#181818;stroke-width:1.0;"/><text fill="#000000" font-family="sans-serif" font-size="13" lengthAdjust="spacing" textLength="62" x="255" y="1083.6045">run reports</text></g><!--link manager to UC9--><g id="link_manager_UC9"><path d="M132.65,942.8694 C179.56,995.6894 276.73,1088.0894 339,1029.1094 C350.88,1017.8594 336.99,895.0494 347,882.1094 C357.62,868.3894 368.0429,861.8231 384.6129,856.8531 " fill="none" id="manager-to-UC9" style="stroke:#181818;stroke-width:1.0;"/><polygon fill="#181818" points="390.36,855.1294,380.5902,853.8837,385.5708,856.5658,382.8886,861.5464,390.36,855.1294" style="stroke:#181818;stroke-width:1.0;"/><text fill="#000000" font-family="sans-serif" font-size="13" lengthAdjust="spacing" textLength="82" x="245" y="1025.6045">manage users</text></g><!--link manager to UC8--><g id="link_manager_UC8"><path d="M125.78,870.8794 C148.33,829.6194 187.61,764.2694 233,717.1094 C273.2,675.3394 307.57,689.8194 339,641.1094 C348.83,625.8794 334.85,614.5694 347,601.1094 C366.28,579.7594 393.067,572.7347 417.267,570.0347 " fill="none" id="manager-to-UC8" style="stroke:#181818;stroke-width:1.0;"/><polygon fill="#181818" points="423.23,569.3694,413.842,566.392,418.2608,569.9238,414.729,574.3426,423.23,569.3694" style="stroke:#181818;stroke-width:1.0;"/><text fill="#000000" font-family="sans-serif" font-size="13" lengthAdjust="spacing" textLength="70" x="251" y="637.6045">access help</text></g><!--reverse link UC7 to UC7a--><g id="link_UC7_UC7a"><path d="M527.917,913.8182 C595.047,911.6782 693.75,908.5294 769.55,906.1094 " fill="none" id="UC7-backto-UC7a" style="stroke:#181818;stroke-width:1.0;stroke-dasharray:7.0,7.0;"/><polygon fill="#181818" points="521.92,914.0094,531.0429,917.7206,526.9175,913.8501,530.788,909.7246,521.92,914.0094" style="stroke:#181818;stroke-width:1.0;"/><text fill="#000000" font-family="sans-serif" font-size="13" lengthAdjust="spacing" textLength="60" x="624" y="904.6045">&#171;extends&#187;</text></g><!--reverse link UC7 to UC7b--><g id="link_UC7_UC7b"><path d="M500.9311,901.4012 C522.5411,894.5712 544.23,888.1794 569,882.1094 C643.94,863.7594 730.85,847.8894 790.73,837.7694 " fill="none" id="UC7-backto-UC7b" style="stroke:#181818;stroke-width:1.0;stroke-dasharray:7.0,7.0;"/><polygon fill="#181818" points="495.21,903.2094,504.997,904.3111,499.9775,901.7026,502.5861,896.6831,495.21,903.2094" style="stroke:#181818;stroke-width:1.0;"/><text fill="#000000" font-family="sans-serif" font-size="13" lengthAdjust="spacing" textLength="60" x="624" y="844.6045">&#171;extends&#187;</text></g><!--link UC2 to UC1--><g id="link_UC2_UC1"><path d="M497.51,443.6894 C510.95,449.4394 525.79,456.1794 539,463.1094 C659.77,526.4494 790.8103,614.8636 839.7603,648.6136 " fill="none" id="UC2-to-UC1" style="stroke:#181818;stroke-width:1.0;stroke-dasharray:7.0,7.0;"/><polygon fill="#181818" points="844.7,652.0194,839.561,643.6175,840.5836,649.1812,835.0199,650.2038,844.7,652.0194" style="stroke:#181818;stroke-width:1.0;"/><text fill="#000000" font-family="sans-serif" font-size="13" lengthAdjust="spacing" textLength="168" x="570" y="479.6045">&#171;requires&#187; (for staff/manager)</text></g><!--link UC4 to UC1--><g id="link_UC4_UC1"><path d="M529.8,702.7794 C618.56,692.7594 757.8279,677.0426 823.4479,669.6326 " fill="none" id="UC4-to-UC1" style="stroke:#181818;stroke-width:1.0;stroke-dasharray:7.0,7.0;"/><polygon fill="#181818" points="829.41,668.9594,820.018,665.9945,824.4416,669.5204,820.9157,673.944,829.41,668.9594" style="stroke:#181818;stroke-width:1.0;"/><text fill="#000000" font-family="sans-serif" font-size="13" lengthAdjust="spacing" textLength="60" x="624" y="676.6045">&#171;requires&#187;</text></g><!--link UC5 to UC1--><g id="link_UC5_UC1"><path d="M539.13,637.7694 C595.6,638.1994 671.93,640.0694 739,646.1094 C770.47,648.9494 800.1713,653.5868 825.2213,658.0068 " fill="none" id="UC5-to-UC1" style="stroke:#181818;stroke-width:1.0;stroke-dasharray:7.0,7.0;"/><polygon fill="#181818" points="831.13,659.0494,822.962,653.5464,826.2061,658.1806,821.5719,661.4247,831.13,659.0494" style="stroke:#181818;stroke-width:1.0;"/><text fill="#000000" font-family="sans-serif" font-size="13" lengthAdjust="spacing" textLength="60" x="624" y="635.6045">&#171;requires&#187;</text></g><!--link UC7 to UC1--><g id="link_UC7_UC1"><path d="M501.19,904.2894 C514.53,899.1394 528.38,891.9594 539,882.1094 C560.86,861.8294 545.31,840.2094 569,822.1094 C630.23,775.3394 670.96,824.2594 739,788.1094 C789.98,761.0294 830.3335,711.2364 849.5735,684.8664 " fill="none" id="UC7-to-UC1" style="stroke:#181818;stroke-width:1.0;stroke-dasharray:7.0,7.0;"/><polygon fill="#181818" points="853.11,680.0194,844.574,684.9322,850.163,684.0585,851.0367,689.6475,853.11,680.0194" style="stroke:#181818;stroke-width:1.0;"/><text fill="#000000" font-family="sans-serif" font-size="13" lengthAdjust="spacing" textLength="60" x="624" y="784.6045">&#171;requires&#187;</text></g><!--link UC9 to UC1--><g id="link_UC9_UC1"><path d="M501.69,835.5694 C514.76,830.4294 528.33,823.4394 539,814.1094 C559.09,796.5494 547.5,777.9094 569,762.1094 C631.39,716.2694 665.79,749.2894 739,724.1094 C776.32,711.2794 811.9705,693.3302 836.3605,680.1602 " fill="none" id="UC9-to-UC1" style="stroke:#181818;stroke-width:1.0;stroke-dasharray:7.0,7.0;"/><polygon fill="#181818" points="841.64,677.3094,831.8202,678.0659,837.2404,679.685,835.6213,685.1052,841.64,677.3094" style="stroke:#181818;stroke-width:1.0;"/><text fill="#000000" font-family="sans-serif" font-size="13" lengthAdjust="spacing" textLength="60" x="624" y="720.6045">&#171;requires&#187;</text></g><!--link UC7 to GMN43--><g id="link_UC7_GMN43"><path d="M506.38,905.5694 C518.93,900.5294 531.06,893.0894 539,882.1094 C594.49,805.3994 514.66,534.6394 569,457.1094 C618.87,385.9694 716.56,352.9394 785.73,337.9594 " fill="none" id="UC7-GMN43" style="stroke:#181818;stroke-width:1.0;stroke-dasharray:7.0,7.0;"/></g><!--link GMN46 to UC2--><g id="link_GMN46_UC2"><path d="M203.12,86.1794 C249.12,96.3094 301.9,114.9194 339,149.1094 C359.45,167.9594 425.48,347.8994 447.09,407.8094 " fill="none" id="GMN46-UC2" style="stroke:#181818;stroke-width:1.0;stroke-dasharray:7.0,7.0;"/></g><!--SRC=[VLLDRzim3BthLn2zh0MM5FrCCmG1jXosmueE3Tgxej2E44Vs93bTCEo_ZvILnlBitGoz9vAFVAAzzWN2aq9fNZM-mJCwj7lfTMbWUN0UTp225uUma0wT40Lc7dm9LkSR3sjjKJ5NkAqsbRHo1vLKMvdZqXyeCCFIv0KA8PKlBNojqNcG3dB-Y8TBBxEC3nr_nCD7QIYCvUDTyod4UpWu-r_9P_1R0DGE5HKDvz_BN9iB3lIok6e32ulIOpj0P5stMTqaaNFJvZoMQvqTUbYtIJvf51OzhBiswuVLniCNNHGHlM-ZpxMX05LflOlmv9zYdvIgAyfrYCmZKVR8sgEfiSDRjNdViAWYy9183aDXRzXZ9LFnHuWFSSOMYo3HRNJbH1WtZ4PpxYvyef5ksHtlZKW8DqJOStb3X0SYIANGETXGUPoqyL2QDDWfNhdYAxNVeF5QqTGJa2jIZHdQATkKtfhQX5jMrTXWY7B7QHeF357kYL850wp800dK8_huHbBPyRaC2K_X0UafgLTyIXcGdv866f2IEYr8mGc1bfw0RPv01vq6PmLVrkpB3jpJmSRuWByy6iST59nZDXw7zqBysInWQpUVjw5L1w9GdqzDvbMqneemD4eZ1xs6yVWuZjdCui-QTYVTXFECbbsOysMiza9mE_lfWfiu24s6eUaG94p9im_xlCpYFed6SZmjoD6WPUS0bE-RHPer3I5i3pgFum3MGbUB0xN12T8F73tc2F-Ea8BtQzWIJOBkCd04lsc_AMlVjYuX7ma9B_toPFsW10fUygUCVm40]--></g></svg>