<?xml version="1.0" encoding="us-ascii" standalone="no"?><svg xmlns="http://www.w3.org/2000/svg" xmlns:xlink="http://www.w3.org/1999/xlink" contentStyleType="text/css" height="559px" preserveAspectRatio="none" style="width:916px;height:559px;background:#FFFFFF;" version="1.1" viewBox="0 0 916 559" width="916px" zoomAndPan="magnify"><defs/><g><text fill="#000000" font-family="sans-serif" font-size="14" font-weight="bold" lengthAdjust="spacing" textLength="268" x="325.5" y="29.5332">View Reservation - Sequence Diagram</text><rect fill="#FFFFFF" height="245.1641" style="stroke:#181818;stroke-width:1.0;" width="10" x="362.5" y="183.9219"/><rect fill="#FFFFFF" height="168.1094" style="stroke:#181818;stroke-width:1.0;" width="10" x="520.5" y="214.2734"/><rect fill="#FFFFFF" height="77.0547" style="stroke:#181818;stroke-width:1.0;" width="10" x="680.5" y="244.625"/><line style="stroke:#181818;stroke-width:0.5;stroke-dasharray:5.0,5.0;" x1="22" x2="22" y1="121.2188" y2="477.4375"/><line style="stroke:#181818;stroke-width:0.5;stroke-dasharray:5.0,5.0;" x1="197" x2="197" y1="121.2188" y2="477.4375"/><line style="stroke:#181818;stroke-width:0.5;stroke-dasharray:5.0,5.0;" x1="367.5" x2="367.5" y1="121.2188" y2="477.4375"/><line style="stroke:#181818;stroke-width:0.5;stroke-dasharray:5.0,5.0;" x1="525" x2="525" y1="121.2188" y2="477.4375"/><line style="stroke:#181818;stroke-width:0.5;stroke-dasharray:5.0,5.0;" x1="685.5" x2="685.5" y1="121.2188" y2="477.4375"/><line style="stroke:#181818;stroke-width:0.5;stroke-dasharray:5.0,5.0;" x1="881" x2="881" y1="121.2188" y2="477.4375"/><text fill="#000000" font-family="sans-serif" font-size="14" lengthAdjust="spacing" textLength="29" x="5" y="118.1426">User</text><ellipse cx="22.5" cy="52.1094" fill="#E2E2F0" rx="8" ry="8" style="stroke:#181818;stroke-width:0.5;"/><path d="M22.5,60.1094 L22.5,87.1094 M9.5,68.1094 L35.5,68.1094 M22.5,87.1094 L9.5,102.1094 M22.5,87.1094 L35.5,102.1094 " fill="none" style="stroke:#181818;stroke-width:0.5;"/><text fill="#000000" font-family="sans-serif" font-size="14" lengthAdjust="spacing" textLength="29" x="5" y="490.9707">User</text><ellipse cx="22.5" cy="502.5469" fill="#E2E2F0" rx="8" ry="8" style="stroke:#181818;stroke-width:0.5;"/><path d="M22.5,510.5469 L22.5,537.5469 M9.5,518.5469 L35.5,518.5469 M22.5,537.5469 L9.5,552.5469 M22.5,537.5469 L35.5,552.5469 " fill="none" style="stroke:#181818;stroke-width:0.5;"/><rect fill="#E2E2F0" height="49.2188" rx="2.5" ry="2.5" style="stroke:#181818;stroke-width:0.5;" width="75" x="160" y="71"/><text fill="#000000" font-family="sans-serif" font-size="14" lengthAdjust="spacing" textLength="58" x="168.5" y="92.5332">Frontend</text><text fill="#000000" font-family="sans-serif" font-size="14" lengthAdjust="spacing" textLength="61" x="167" y="110.1426">(Browser)</text><rect fill="#E2E2F0" height="49.2188" rx="2.5" ry="2.5" style="stroke:#181818;stroke-width:0.5;" width="75" x="160" y="476.4375"/><text fill="#000000" font-family="sans-serif" font-size="14" lengthAdjust="spacing" textLength="58" x="168.5" y="497.9707">Frontend</text><text fill="#000000" font-family="sans-serif" font-size="14" lengthAdjust="spacing" textLength="61" x="167" y="515.5801">(Browser)</text><rect fill="#E2E2F0" height="31.6094" rx="2.5" ry="2.5" style="stroke:#181818;stroke-width:0.5;" width="152" x="291.5" y="88.6094"/><text fill="#000000" font-family="sans-serif" font-size="14" lengthAdjust="spacing" textLength="138" x="298.5" y="110.1426">ReservationController</text><rect fill="#E2E2F0" height="31.6094" rx="2.5" ry="2.5" style="stroke:#181818;stroke-width:0.5;" width="152" x="291.5" y="476.4375"/><text fill="#000000" font-family="sans-serif" font-size="14" lengthAdjust="spacing" textLength="138" x="298.5" y="497.9707">ReservationController</text><rect fill="#E2E2F0" height="31.6094" rx="2.5" ry="2.5" style="stroke:#181818;stroke-width:0.5;" width="137" x="457" y="88.6094"/><text fill="#000000" font-family="sans-serif" font-size="14" lengthAdjust="spacing" textLength="123" x="464" y="110.1426">ReservationService</text><rect fill="#E2E2F0" height="31.6094" rx="2.5" ry="2.5" style="stroke:#181818;stroke-width:0.5;" width="137" x="457" y="476.4375"/><text fill="#000000" font-family="sans-serif" font-size="14" lengthAdjust="spacing" textLength="123" x="464" y="497.9707">ReservationService</text><rect fill="#E2E2F0" height="31.6094" rx="2.5" ry="2.5" style="stroke:#181818;stroke-width:0.5;" width="158" x="606.5" y="88.6094"/><text fill="#000000" font-family="sans-serif" font-size="14" lengthAdjust="spacing" textLength="144" x="613.5" y="110.1426">ReservationRepository</text><rect fill="#E2E2F0" height="31.6094" rx="2.5" ry="2.5" style="stroke:#181818;stroke-width:0.5;" width="158" x="606.5" y="476.4375"/><text fill="#000000" font-family="sans-serif" font-size="14" lengthAdjust="spacing" textLength="144" x="613.5" y="497.9707">ReservationRepository</text><text fill="#000000" font-family="sans-serif" font-size="14" lengthAdjust="spacing" textLength="61" x="848" y="118.1426">Database</text><path d="M863.5,67.6094 C863.5,57.6094 881.5,57.6094 881.5,57.6094 C881.5,57.6094 899.5,57.6094 899.5,67.6094 L899.5,93.6094 C899.5,103.6094 881.5,103.6094 881.5,103.6094 C881.5,103.6094 863.5,103.6094 863.5,93.6094 L863.5,67.6094 " fill="#E2E2F0" style="stroke:#181818;stroke-width:1.5;"/><path d="M863.5,67.6094 C863.5,77.6094 881.5,77.6094 881.5,77.6094 C881.5,77.6094 899.5,77.6094 899.5,67.6094 " fill="none" style="stroke:#181818;stroke-width:1.5;"/><text fill="#000000" font-family="sans-serif" font-size="14" lengthAdjust="spacing" textLength="61" x="848" y="490.9707">Database</text><path d="M863.5,504.0469 C863.5,494.0469 881.5,494.0469 881.5,494.0469 C881.5,494.0469 899.5,494.0469 899.5,504.0469 L899.5,530.0469 C899.5,540.0469 881.5,540.0469 881.5,540.0469 C881.5,540.0469 863.5,540.0469 863.5,530.0469 L863.5,504.0469 " fill="#E2E2F0" style="stroke:#181818;stroke-width:1.5;"/><path d="M863.5,504.0469 C863.5,514.0469 881.5,514.0469 881.5,514.0469 C881.5,514.0469 899.5,514.0469 899.5,504.0469 " fill="none" style="stroke:#181818;stroke-width:1.5;"/><rect fill="#FFFFFF" height="245.1641" style="stroke:#181818;stroke-width:1.0;" width="10" x="362.5" y="183.9219"/><rect fill="#FFFFFF" height="168.1094" style="stroke:#181818;stroke-width:1.0;" width="10" x="520.5" y="214.2734"/><rect fill="#FFFFFF" height="77.0547" style="stroke:#181818;stroke-width:1.0;" width="10" x="680.5" y="244.625"/><polygon fill="#181818" points="185.5,149.5703,195.5,153.5703,185.5,157.5703,189.5,153.5703" style="stroke:#181818;stroke-width:1.0;"/><line style="stroke:#181818;stroke-width:1.0;" x1="22.5" x2="191.5" y1="153.5703" y2="153.5703"/><text fill="#000000" font-family="sans-serif" font-size="13" lengthAdjust="spacing" textLength="142" x="29.5" y="148.7139">Click "View Reservation"</text><polygon fill="#181818" points="350.5,179.9219,360.5,183.9219,350.5,187.9219,354.5,183.9219" style="stroke:#181818;stroke-width:1.0;"/><line style="stroke:#181818;stroke-width:1.0;" x1="197.5" x2="356.5" y1="183.9219" y2="183.9219"/><text fill="#000000" font-family="sans-serif" font-size="13" lengthAdjust="spacing" textLength="146" x="204.5" y="179.0654">GET /api/reservations/{id}</text><polygon fill="#181818" points="508.5,210.2734,518.5,214.2734,508.5,218.2734,512.5,214.2734" style="stroke:#181818;stroke-width:1.0;"/><line style="stroke:#181818;stroke-width:1.0;" x1="372.5" x2="514.5" y1="214.2734" y2="214.2734"/><text fill="#000000" font-family="sans-serif" font-size="13" lengthAdjust="spacing" textLength="129" x="379.5" y="209.417">getReservationById(id)</text><polygon fill="#181818" points="668.5,240.625,678.5,244.625,668.5,248.625,672.5,244.625" style="stroke:#181818;stroke-width:1.0;"/><line style="stroke:#181818;stroke-width:1.0;" x1="530.5" x2="674.5" y1="244.625" y2="244.625"/><text fill="#000000" font-family="sans-serif" font-size="13" lengthAdjust="spacing" textLength="64" x="537.5" y="239.7686">findById(id)</text><polygon fill="#181818" points="869.5,287.3281,879.5,291.3281,869.5,295.3281,873.5,291.3281" style="stroke:#181818;stroke-width:1.0;"/><line style="stroke:#181818;stroke-width:1.0;" x1="690.5" x2="875.5" y1="291.3281" y2="291.3281"/><text fill="#000000" font-family="sans-serif" font-size="13" lengthAdjust="spacing" textLength="167" x="697.5" y="270.1201">SELECT * FROM reservation</text><text fill="#000000" font-family="sans-serif" font-size="13" lengthAdjust="spacing" textLength="86" x="697.5" y="286.4717">WHERE id = ?</text><polygon fill="#181818" points="696.5,317.6797,686.5,321.6797,696.5,325.6797,692.5,321.6797" style="stroke:#181818;stroke-width:1.0;"/><line style="stroke:#181818;stroke-width:1.0;stroke-dasharray:2.0,2.0;" x1="690.5" x2="880.5" y1="321.6797" y2="321.6797"/><text fill="#000000" font-family="sans-serif" font-size="13" lengthAdjust="spacing" textLength="107" x="702.5" y="316.8232">Reservation record</text><polygon fill="#181818" points="541.5,348.0313,531.5,352.0313,541.5,356.0313,537.5,352.0313" style="stroke:#181818;stroke-width:1.0;"/><line style="stroke:#181818;stroke-width:1.0;stroke-dasharray:2.0,2.0;" x1="535.5" x2="684.5" y1="352.0313" y2="352.0313"/><text fill="#000000" font-family="sans-serif" font-size="13" lengthAdjust="spacing" textLength="131" x="547.5" y="347.1748">Optional&lt;Reservation&gt;</text><polygon fill="#181818" points="383.5,378.3828,373.5,382.3828,383.5,386.3828,379.5,382.3828" style="stroke:#181818;stroke-width:1.0;"/><line style="stroke:#181818;stroke-width:1.0;stroke-dasharray:2.0,2.0;" x1="377.5" x2="524.5" y1="382.3828" y2="382.3828"/><text fill="#000000" font-family="sans-serif" font-size="13" lengthAdjust="spacing" textLength="106" x="389.5" y="377.5264">Reservation object</text><polygon fill="#181818" points="208.5,425.0859,198.5,429.0859,208.5,433.0859,204.5,429.0859" style="stroke:#181818;stroke-width:1.0;"/><line style="stroke:#181818;stroke-width:1.0;stroke-dasharray:2.0,2.0;" x1="202.5" x2="366.5" y1="429.0859" y2="429.0859"/><text fill="#000000" font-family="sans-serif" font-size="13" lengthAdjust="spacing" textLength="44" x="214.5" y="407.8779">200 OK</text><text fill="#000000" font-family="sans-serif" font-size="13" lengthAdjust="spacing" textLength="70" x="214.5" y="424.2295">{reservation}</text><polygon fill="#181818" points="33.5,455.4375,23.5,459.4375,33.5,463.4375,29.5,459.4375" style="stroke:#181818;stroke-width:1.0;"/><line style="stroke:#181818;stroke-width:1.0;stroke-dasharray:2.0,2.0;" x1="27.5" x2="196.5" y1="459.4375" y2="459.4375"/><text fill="#000000" font-family="sans-serif" font-size="13" lengthAdjust="spacing" textLength="151" x="39.5" y="454.5811">Display reservation details</text><!--SRC=[TL9HJy8m47xlhxZi2Km8nCT5CHaRQjIG3DGNNafxajFPpgvA2E6_sovZAoWlpRNttNVtVLTBja1u8Tn0ZXMQ7sv9AnZ07B- -KGc4bFZQy4_6kB3QmBC3iP8RIu9AhYn4KwELHIMNgfSOlN7vVWIyWiFxCJheCd5veui2JOtlhcShvYuWWJMyYSzYSonrHMxaRGttLoQvvIjU8KHf4zMvD67CwuB1k9qwXab1uWEYKsyYTe1uU3Tq3BVP0eQyfA7fqDLmHtBllIFtWA58riMUgT4Jmnfjq2xPtiiUoNv7SH3Eci0NUtKnl96IV_6rSkPFZqoJ6ERPOpPPm0LCyzaJ1DCkrUjTbcT04gxXXgK935hoy7iO5Df89l7V9g6OMUaBU74Lb8-xoKyS37lerJiA6_PeXOV67QtiSZI2sSDIxG9D-v0YjBzRe-Fmwu_TNw_AWcz3Iq2YvLHKx1S0]--></g></svg>